<mxfile host="app.diagrams.net" modified="2023-02-06T09:11:36.503Z" agent="5.0 (X11)" etag="o-ALaBIbqJJEGIBl-RdV" version="20.8.16" type="github" pages="3">
  <diagram name="Page-1" id="iesOPW5UEVCXa7-aBT-z">
    <mxGraphModel dx="1699" dy="1089" grid="1" gridSize="10" guides="1" tooltips="1" connect="1" arrows="1" fold="1" page="1" pageScale="1" pageWidth="850" pageHeight="1100" math="0" shadow="0">
      <root>
        <mxCell id="0" />
        <mxCell id="1" parent="0" />
        <mxCell id="OLxPLdGhLjk8IfWRgU_C-67" value="" style="edgeStyle=orthogonalEdgeStyle;rounded=0;orthogonalLoop=1;jettySize=auto;html=1;startArrow=none;startFill=0;endArrow=classic;endFill=1;" edge="1" parent="1" source="FhdzTXekeuRtPupGvzrz-1" target="OLxPLdGhLjk8IfWRgU_C-1">
          <mxGeometry relative="1" as="geometry" />
        </mxCell>
        <mxCell id="M3rctNJt1o3QwohrvxCv-3" value="" style="edgeStyle=orthogonalEdgeStyle;rounded=0;orthogonalLoop=1;jettySize=auto;html=1;startArrow=none;startFill=0;endArrow=none;endFill=0;dashed=1;" edge="1" parent="1" source="FhdzTXekeuRtPupGvzrz-1" target="M3rctNJt1o3QwohrvxCv-2">
          <mxGeometry relative="1" as="geometry" />
        </mxCell>
        <mxCell id="FhdzTXekeuRtPupGvzrz-1" value="create message object" style="rounded=0;whiteSpace=wrap;html=1;" vertex="1" parent="1">
          <mxGeometry x="137.5" y="160" width="145" height="50" as="geometry" />
        </mxCell>
        <mxCell id="FhdzTXekeuRtPupGvzrz-6" value="&lt;b&gt;ISO8583 binding - packing&lt;/b&gt;" style="text;html=1;align=center;verticalAlign=middle;resizable=0;points=[];autosize=1;strokeColor=none;fillColor=none;" vertex="1" parent="1">
          <mxGeometry x="10" y="20" width="170" height="30" as="geometry" />
        </mxCell>
        <mxCell id="OLxPLdGhLjk8IfWRgU_C-48" value="" style="edgeStyle=orthogonalEdgeStyle;rounded=0;orthogonalLoop=1;jettySize=auto;html=1;startArrow=none;startFill=0;endArrow=classic;endFill=1;" edge="1" parent="1" source="FhdzTXekeuRtPupGvzrz-7" target="FhdzTXekeuRtPupGvzrz-21">
          <mxGeometry relative="1" as="geometry" />
        </mxCell>
        <mxCell id="FhdzTXekeuRtPupGvzrz-7" value="fetch field data" style="rounded=0;whiteSpace=wrap;html=1;" vertex="1" parent="1">
          <mxGeometry x="165" y="330" width="90" height="50" as="geometry" />
        </mxCell>
        <mxCell id="OLxPLdGhLjk8IfWRgU_C-46" style="edgeStyle=orthogonalEdgeStyle;rounded=0;orthogonalLoop=1;jettySize=auto;html=1;entryX=1;entryY=0.5;entryDx=0;entryDy=0;startArrow=none;startFill=0;endArrow=none;endFill=0;dashed=1;" edge="1" parent="1" source="FhdzTXekeuRtPupGvzrz-18" target="FhdzTXekeuRtPupGvzrz-26">
          <mxGeometry relative="1" as="geometry" />
        </mxCell>
        <mxCell id="FhdzTXekeuRtPupGvzrz-18" value="packager config" style="whiteSpace=wrap;html=1;rounded=0;" vertex="1" parent="1">
          <mxGeometry x="300" y="575" width="100" height="50" as="geometry" />
        </mxCell>
        <mxCell id="OLxPLdGhLjk8IfWRgU_C-44" value="" style="edgeStyle=orthogonalEdgeStyle;rounded=0;orthogonalLoop=1;jettySize=auto;html=1;startArrow=none;startFill=0;endArrow=classic;endFill=1;" edge="1" parent="1" source="FhdzTXekeuRtPupGvzrz-21" target="FhdzTXekeuRtPupGvzrz-26">
          <mxGeometry relative="1" as="geometry" />
        </mxCell>
        <mxCell id="OLxPLdGhLjk8IfWRgU_C-72" style="edgeStyle=orthogonalEdgeStyle;rounded=0;orthogonalLoop=1;jettySize=auto;html=1;entryX=1;entryY=0.75;entryDx=0;entryDy=0;startArrow=none;startFill=0;endArrow=classic;endFill=1;" edge="1" parent="1" source="FhdzTXekeuRtPupGvzrz-21" target="OLxPLdGhLjk8IfWRgU_C-1">
          <mxGeometry relative="1" as="geometry">
            <Array as="points">
              <mxPoint x="297" y="460" />
              <mxPoint x="297" y="277" />
            </Array>
          </mxGeometry>
        </mxCell>
        <mxCell id="FhdzTXekeuRtPupGvzrz-21" value="isValid" style="rhombus;whiteSpace=wrap;html=1;rounded=0;" vertex="1" parent="1">
          <mxGeometry x="170" y="420" width="80" height="80" as="geometry" />
        </mxCell>
        <mxCell id="OLxPLdGhLjk8IfWRgU_C-73" style="edgeStyle=orthogonalEdgeStyle;rounded=0;orthogonalLoop=1;jettySize=auto;html=1;entryX=0.5;entryY=0;entryDx=0;entryDy=0;startArrow=none;startFill=0;endArrow=classic;endFill=1;" edge="1" parent="1" source="FhdzTXekeuRtPupGvzrz-26" target="OLxPLdGhLjk8IfWRgU_C-49">
          <mxGeometry relative="1" as="geometry" />
        </mxCell>
        <mxCell id="FhdzTXekeuRtPupGvzrz-26" value="bind field into set " style="whiteSpace=wrap;html=1;rounded=0;" vertex="1" parent="1">
          <mxGeometry x="161.25" y="575" width="97.5" height="50" as="geometry" />
        </mxCell>
        <mxCell id="OLxPLdGhLjk8IfWRgU_C-6" value="" style="edgeStyle=orthogonalEdgeStyle;rounded=0;orthogonalLoop=1;jettySize=auto;html=1;endArrow=classic;endFill=1;" edge="1" parent="1" source="FhdzTXekeuRtPupGvzrz-31" target="OLxPLdGhLjk8IfWRgU_C-5">
          <mxGeometry relative="1" as="geometry" />
        </mxCell>
        <mxCell id="OLxPLdGhLjk8IfWRgU_C-53" value="" style="edgeStyle=orthogonalEdgeStyle;rounded=0;orthogonalLoop=1;jettySize=auto;html=1;startArrow=none;startFill=0;endArrow=oval;endFill=1;" edge="1" parent="1" source="FhdzTXekeuRtPupGvzrz-31" target="OLxPLdGhLjk8IfWRgU_C-10">
          <mxGeometry relative="1" as="geometry" />
        </mxCell>
        <mxCell id="FhdzTXekeuRtPupGvzrz-31" value="pack message" style="whiteSpace=wrap;html=1;rounded=0;" vertex="1" parent="1">
          <mxGeometry x="405" y="870" width="90" height="35" as="geometry" />
        </mxCell>
        <mxCell id="OLxPLdGhLjk8IfWRgU_C-59" value="" style="edgeStyle=orthogonalEdgeStyle;rounded=0;orthogonalLoop=1;jettySize=auto;html=1;startArrow=none;startFill=0;endArrow=classic;endFill=1;" edge="1" parent="1" source="FhdzTXekeuRtPupGvzrz-34" target="FhdzTXekeuRtPupGvzrz-1">
          <mxGeometry relative="1" as="geometry" />
        </mxCell>
        <mxCell id="FhdzTXekeuRtPupGvzrz-34" value="check message type and version" style="rounded=0;whiteSpace=wrap;html=1;" vertex="1" parent="1">
          <mxGeometry x="165" y="60" width="90" height="70" as="geometry" />
        </mxCell>
        <mxCell id="FhdzTXekeuRtPupGvzrz-41" value="" style="edgeStyle=orthogonalEdgeStyle;rounded=0;orthogonalLoop=1;jettySize=auto;html=1;endArrow=classic;endFill=1;startArrow=oval;startFill=1;" edge="1" parent="1" target="FhdzTXekeuRtPupGvzrz-34">
          <mxGeometry relative="1" as="geometry">
            <mxPoint x="100" y="95" as="sourcePoint" />
          </mxGeometry>
        </mxCell>
        <mxCell id="OLxPLdGhLjk8IfWRgU_C-62" style="edgeStyle=orthogonalEdgeStyle;rounded=0;orthogonalLoop=1;jettySize=auto;html=1;startArrow=none;startFill=0;endArrow=classic;endFill=1;" edge="1" parent="1" source="OLxPLdGhLjk8IfWRgU_C-1" target="FhdzTXekeuRtPupGvzrz-7">
          <mxGeometry relative="1" as="geometry" />
        </mxCell>
        <mxCell id="OLxPLdGhLjk8IfWRgU_C-1" value="&lt;div&gt;handle message&lt;/div&gt;" style="rounded=0;whiteSpace=wrap;html=1;" vertex="1" parent="1">
          <mxGeometry x="142.5" y="240" width="135" height="50" as="geometry" />
        </mxCell>
        <mxCell id="OLxPLdGhLjk8IfWRgU_C-54" style="edgeStyle=orthogonalEdgeStyle;rounded=0;orthogonalLoop=1;jettySize=auto;html=1;startArrow=none;startFill=0;endArrow=classic;endFill=1;" edge="1" parent="1" source="OLxPLdGhLjk8IfWRgU_C-5">
          <mxGeometry relative="1" as="geometry">
            <mxPoint x="120" y="100" as="targetPoint" />
          </mxGeometry>
        </mxCell>
        <mxCell id="OLxPLdGhLjk8IfWRgU_C-5" value="loop" style="whiteSpace=wrap;html=1;rounded=0;" vertex="1" parent="1">
          <mxGeometry x="240" y="870" width="90" height="35" as="geometry" />
        </mxCell>
        <mxCell id="OLxPLdGhLjk8IfWRgU_C-9" value="Start" style="text;html=1;align=center;verticalAlign=middle;resizable=0;points=[];autosize=1;strokeColor=none;fillColor=none;" vertex="1" parent="1">
          <mxGeometry x="50" y="80" width="50" height="30" as="geometry" />
        </mxCell>
        <mxCell id="OLxPLdGhLjk8IfWRgU_C-10" value="Finish" style="text;html=1;align=center;verticalAlign=middle;resizable=0;points=[];autosize=1;strokeColor=none;fillColor=none;" vertex="1" parent="1">
          <mxGeometry x="420" y="940" width="60" height="30" as="geometry" />
        </mxCell>
        <mxCell id="OLxPLdGhLjk8IfWRgU_C-20" value="" style="edgeStyle=orthogonalEdgeStyle;rounded=0;orthogonalLoop=1;jettySize=auto;html=1;dashed=1;startArrow=none;startFill=0;endArrow=none;endFill=0;exitX=0;exitY=0.5;exitDx=0;exitDy=0;" edge="1" parent="1" source="OLxPLdGhLjk8IfWRgU_C-11" target="OLxPLdGhLjk8IfWRgU_C-1">
          <mxGeometry relative="1" as="geometry">
            <Array as="points">
              <mxPoint x="335" y="250" />
            </Array>
          </mxGeometry>
        </mxCell>
        <mxCell id="OLxPLdGhLjk8IfWRgU_C-11" value="handler methods" style="rounded=0;whiteSpace=wrap;html=1;" vertex="1" parent="1">
          <mxGeometry x="335" y="220" width="90" height="50" as="geometry" />
        </mxCell>
        <mxCell id="OLxPLdGhLjk8IfWRgU_C-51" style="edgeStyle=orthogonalEdgeStyle;rounded=0;orthogonalLoop=1;jettySize=auto;html=1;startArrow=none;startFill=0;endArrow=classic;endFill=1;" edge="1" parent="1" source="OLxPLdGhLjk8IfWRgU_C-49">
          <mxGeometry relative="1" as="geometry">
            <mxPoint x="209.99999999999977" y="520" as="targetPoint" />
            <Array as="points">
              <mxPoint x="140" y="800" />
              <mxPoint x="140" y="520" />
            </Array>
          </mxGeometry>
        </mxCell>
        <mxCell id="OLxPLdGhLjk8IfWRgU_C-66" value="" style="edgeStyle=orthogonalEdgeStyle;rounded=0;orthogonalLoop=1;jettySize=auto;html=1;startArrow=none;startFill=0;endArrow=classic;endFill=1;" edge="1" parent="1" source="OLxPLdGhLjk8IfWRgU_C-49" target="FhdzTXekeuRtPupGvzrz-31">
          <mxGeometry relative="1" as="geometry">
            <mxPoint x="210" y="790.0000000000002" as="targetPoint" />
          </mxGeometry>
        </mxCell>
        <mxCell id="OLxPLdGhLjk8IfWRgU_C-49" value="finish" style="rhombus;whiteSpace=wrap;html=1;rounded=0;" vertex="1" parent="1">
          <mxGeometry x="170" y="760" width="80" height="80" as="geometry" />
        </mxCell>
        <mxCell id="OLxPLdGhLjk8IfWRgU_C-55" value="N" style="text;html=1;align=center;verticalAlign=middle;resizable=0;points=[];autosize=1;strokeColor=none;fillColor=none;" vertex="1" parent="1">
          <mxGeometry x="150" y="765" width="30" height="30" as="geometry" />
        </mxCell>
        <mxCell id="OLxPLdGhLjk8IfWRgU_C-56" value="Y" style="text;html=1;align=center;verticalAlign=middle;resizable=0;points=[];autosize=1;strokeColor=none;fillColor=none;" vertex="1" parent="1">
          <mxGeometry x="235" y="765" width="30" height="30" as="geometry" />
        </mxCell>
        <mxCell id="OLxPLdGhLjk8IfWRgU_C-58" value="Y" style="text;html=1;align=center;verticalAlign=middle;resizable=0;points=[];autosize=1;strokeColor=none;fillColor=none;" vertex="1" parent="1">
          <mxGeometry x="205" y="500" width="30" height="30" as="geometry" />
        </mxCell>
        <mxCell id="M3rctNJt1o3QwohrvxCv-2" value="class info" style="rounded=0;whiteSpace=wrap;html=1;" vertex="1" parent="1">
          <mxGeometry x="335" y="160" width="90" height="50" as="geometry" />
        </mxCell>
      </root>
    </mxGraphModel>
  </diagram>
  <diagram id="ys0Y4ezUv7GCqnHxwTND" name="Page-2">
    <mxGraphModel dx="1593" dy="1021" grid="1" gridSize="10" guides="1" tooltips="1" connect="1" arrows="1" fold="1" page="1" pageScale="1" pageWidth="850" pageHeight="1100" math="0" shadow="0">
      <root>
        <mxCell id="0" />
        <mxCell id="1" parent="0" />
        <mxCell id="_MiZ3It3XQy1CFVNMn3t-34" value="" style="edgeStyle=orthogonalEdgeStyle;rounded=0;orthogonalLoop=1;jettySize=auto;html=1;startArrow=none;startFill=0;endArrow=classic;endFill=1;" edge="1" parent="1" source="_MiZ3It3XQy1CFVNMn3t-36" target="_MiZ3It3XQy1CFVNMn3t-55">
          <mxGeometry relative="1" as="geometry" />
        </mxCell>
        <mxCell id="_MiZ3It3XQy1CFVNMn3t-35" value="" style="edgeStyle=orthogonalEdgeStyle;rounded=0;orthogonalLoop=1;jettySize=auto;html=1;startArrow=none;startFill=0;endArrow=none;endFill=0;dashed=1;" edge="1" parent="1" source="_MiZ3It3XQy1CFVNMn3t-36" target="_MiZ3It3XQy1CFVNMn3t-65">
          <mxGeometry relative="1" as="geometry" />
        </mxCell>
        <mxCell id="_MiZ3It3XQy1CFVNMn3t-36" value="create message object" style="rounded=1;whiteSpace=wrap;html=1;" vertex="1" parent="1">
          <mxGeometry x="230" y="310" width="145" height="50" as="geometry" />
        </mxCell>
        <mxCell id="_MiZ3It3XQy1CFVNMn3t-37" value="&lt;b&gt;ISO8583 binding - packing&lt;/b&gt;" style="text;html=1;align=center;verticalAlign=middle;resizable=0;points=[];autosize=1;strokeColor=none;fillColor=none;" vertex="1" parent="1">
          <mxGeometry x="20" y="30" width="170" height="30" as="geometry" />
        </mxCell>
        <mxCell id="_MiZ3It3XQy1CFVNMn3t-38" value="" style="edgeStyle=orthogonalEdgeStyle;rounded=0;orthogonalLoop=1;jettySize=auto;html=1;startArrow=none;startFill=0;endArrow=classic;endFill=1;" edge="1" parent="1" source="_MiZ3It3XQy1CFVNMn3t-39" target="_MiZ3It3XQy1CFVNMn3t-44">
          <mxGeometry relative="1" as="geometry" />
        </mxCell>
        <mxCell id="_MiZ3It3XQy1CFVNMn3t-39" value="fetch data" style="rounded=1;whiteSpace=wrap;html=1;" vertex="1" parent="1">
          <mxGeometry x="257.5" y="480" width="90" height="50" as="geometry" />
        </mxCell>
        <mxCell id="_MiZ3It3XQy1CFVNMn3t-40" style="edgeStyle=orthogonalEdgeStyle;rounded=0;orthogonalLoop=1;jettySize=auto;html=1;entryX=1;entryY=0.5;entryDx=0;entryDy=0;startArrow=none;startFill=0;endArrow=none;endFill=0;dashed=1;" edge="1" parent="1" source="_MiZ3It3XQy1CFVNMn3t-41" target="_MiZ3It3XQy1CFVNMn3t-46">
          <mxGeometry relative="1" as="geometry" />
        </mxCell>
        <mxCell id="_MiZ3It3XQy1CFVNMn3t-41" value="packager config" style="whiteSpace=wrap;html=1;rounded=1;" vertex="1" parent="1">
          <mxGeometry x="392.5" y="725" width="100" height="50" as="geometry" />
        </mxCell>
        <mxCell id="_MiZ3It3XQy1CFVNMn3t-42" value="" style="edgeStyle=orthogonalEdgeStyle;rounded=0;orthogonalLoop=1;jettySize=auto;html=1;startArrow=none;startFill=0;endArrow=classic;endFill=1;" edge="1" parent="1" source="_MiZ3It3XQy1CFVNMn3t-44" target="_MiZ3It3XQy1CFVNMn3t-46">
          <mxGeometry relative="1" as="geometry" />
        </mxCell>
        <mxCell id="_MiZ3It3XQy1CFVNMn3t-43" style="edgeStyle=orthogonalEdgeStyle;rounded=0;orthogonalLoop=1;jettySize=auto;html=1;entryX=0;entryY=0.5;entryDx=0;entryDy=0;startArrow=none;startFill=0;endArrow=classic;endFill=1;" edge="1" parent="1" source="_MiZ3It3XQy1CFVNMn3t-44" target="_MiZ3It3XQy1CFVNMn3t-55">
          <mxGeometry relative="1" as="geometry">
            <Array as="points">
              <mxPoint x="160" y="610" />
              <mxPoint x="160" y="415" />
            </Array>
          </mxGeometry>
        </mxCell>
        <mxCell id="_MiZ3It3XQy1CFVNMn3t-44" value="isValid" style="rhombus;whiteSpace=wrap;html=1;rounded=1;" vertex="1" parent="1">
          <mxGeometry x="262.5" y="570" width="80" height="80" as="geometry" />
        </mxCell>
        <mxCell id="_MiZ3It3XQy1CFVNMn3t-45" style="edgeStyle=orthogonalEdgeStyle;rounded=0;orthogonalLoop=1;jettySize=auto;html=1;entryX=0.5;entryY=0;entryDx=0;entryDy=0;startArrow=none;startFill=0;endArrow=classic;endFill=1;" edge="1" parent="1" source="_MiZ3It3XQy1CFVNMn3t-46" target="_MiZ3It3XQy1CFVNMn3t-61">
          <mxGeometry relative="1" as="geometry" />
        </mxCell>
        <mxCell id="_MiZ3It3XQy1CFVNMn3t-46" value="bind field into set " style="whiteSpace=wrap;html=1;rounded=1;" vertex="1" parent="1">
          <mxGeometry x="253.75" y="725" width="97.5" height="50" as="geometry" />
        </mxCell>
        <mxCell id="_MiZ3It3XQy1CFVNMn3t-47" value="" style="edgeStyle=orthogonalEdgeStyle;rounded=0;orthogonalLoop=1;jettySize=auto;html=1;startArrow=none;startFill=0;endArrow=oval;endFill=1;" edge="1" parent="1" source="_MiZ3It3XQy1CFVNMn3t-49" target="_MiZ3It3XQy1CFVNMn3t-57">
          <mxGeometry relative="1" as="geometry" />
        </mxCell>
        <mxCell id="_MiZ3It3XQy1CFVNMn3t-48" style="edgeStyle=orthogonalEdgeStyle;rounded=0;orthogonalLoop=1;jettySize=auto;html=1;startArrow=none;startFill=0;endArrow=classic;endFill=1;" edge="1" parent="1" source="_MiZ3It3XQy1CFVNMn3t-49">
          <mxGeometry relative="1" as="geometry">
            <mxPoint x="130.00000000000023" y="110" as="targetPoint" />
          </mxGeometry>
        </mxCell>
        <mxCell id="_MiZ3It3XQy1CFVNMn3t-49" value="pack message" style="whiteSpace=wrap;html=1;rounded=1;" vertex="1" parent="1">
          <mxGeometry x="497.5" y="1020" width="90" height="35" as="geometry" />
        </mxCell>
        <mxCell id="_MiZ3It3XQy1CFVNMn3t-50" style="rounded=0;orthogonalLoop=1;jettySize=auto;html=1;entryX=0.462;entryY=0.02;entryDx=0;entryDy=0;entryPerimeter=0;startArrow=none;startFill=0;endArrow=classic;endFill=1;edgeStyle=orthogonalEdgeStyle;" edge="1" parent="1" source="_MiZ3It3XQy1CFVNMn3t-51" target="_MiZ3It3XQy1CFVNMn3t-36">
          <mxGeometry relative="1" as="geometry">
            <Array as="points">
              <mxPoint x="297" y="190" />
              <mxPoint x="297" y="190" />
            </Array>
          </mxGeometry>
        </mxCell>
        <mxCell id="_MiZ3It3XQy1CFVNMn3t-51" value="&lt;div&gt;check message type&lt;/div&gt;&lt;div&gt;&amp;nbsp;and version&lt;/div&gt;" style="rounded=1;whiteSpace=wrap;html=1;" vertex="1" parent="1">
          <mxGeometry x="235" y="65" width="135" height="80" as="geometry" />
        </mxCell>
        <mxCell id="_MiZ3It3XQy1CFVNMn3t-52" value="" style="edgeStyle=orthogonalEdgeStyle;rounded=0;orthogonalLoop=1;jettySize=auto;html=1;endArrow=classic;endFill=1;startArrow=oval;startFill=1;" edge="1" parent="1" target="_MiZ3It3XQy1CFVNMn3t-51">
          <mxGeometry relative="1" as="geometry">
            <mxPoint x="110.00000000000023" y="105" as="sourcePoint" />
          </mxGeometry>
        </mxCell>
        <mxCell id="_MiZ3It3XQy1CFVNMn3t-53" style="edgeStyle=orthogonalEdgeStyle;rounded=0;orthogonalLoop=1;jettySize=auto;html=1;startArrow=none;startFill=0;endArrow=classic;endFill=1;" edge="1" parent="1" source="_MiZ3It3XQy1CFVNMn3t-55" target="_MiZ3It3XQy1CFVNMn3t-39">
          <mxGeometry relative="1" as="geometry" />
        </mxCell>
        <mxCell id="_MiZ3It3XQy1CFVNMn3t-54" value="" style="edgeStyle=orthogonalEdgeStyle;rounded=0;orthogonalLoop=1;jettySize=auto;html=1;dashed=1;startArrow=none;startFill=0;endArrow=none;endFill=0;" edge="1" parent="1" source="_MiZ3It3XQy1CFVNMn3t-55" target="_MiZ3It3XQy1CFVNMn3t-58">
          <mxGeometry relative="1" as="geometry" />
        </mxCell>
        <mxCell id="_MiZ3It3XQy1CFVNMn3t-55" value="&lt;div&gt;handle message&lt;/div&gt;" style="rounded=1;whiteSpace=wrap;html=1;" vertex="1" parent="1">
          <mxGeometry x="235" y="390" width="135" height="50" as="geometry" />
        </mxCell>
        <mxCell id="_MiZ3It3XQy1CFVNMn3t-56" value="Start" style="text;html=1;align=center;verticalAlign=middle;resizable=0;points=[];autosize=1;strokeColor=none;fillColor=none;" vertex="1" parent="1">
          <mxGeometry x="60" y="90" width="50" height="30" as="geometry" />
        </mxCell>
        <mxCell id="_MiZ3It3XQy1CFVNMn3t-57" value="Finish" style="text;html=1;align=center;verticalAlign=middle;resizable=0;points=[];autosize=1;strokeColor=none;fillColor=none;" vertex="1" parent="1">
          <mxGeometry x="512.5" y="1090" width="60" height="30" as="geometry" />
        </mxCell>
        <mxCell id="_MiZ3It3XQy1CFVNMn3t-58" value="handler methods" style="rounded=1;whiteSpace=wrap;html=1;" vertex="1" parent="1">
          <mxGeometry x="460" y="390" width="100" height="50" as="geometry" />
        </mxCell>
        <mxCell id="_MiZ3It3XQy1CFVNMn3t-59" style="edgeStyle=orthogonalEdgeStyle;rounded=0;orthogonalLoop=1;jettySize=auto;html=1;startArrow=none;startFill=0;endArrow=classic;endFill=1;" edge="1" parent="1" source="_MiZ3It3XQy1CFVNMn3t-61">
          <mxGeometry relative="1" as="geometry">
            <mxPoint x="302.5" y="670" as="targetPoint" />
            <Array as="points">
              <mxPoint x="170" y="950" />
              <mxPoint x="170" y="670" />
            </Array>
          </mxGeometry>
        </mxCell>
        <mxCell id="_MiZ3It3XQy1CFVNMn3t-60" value="" style="edgeStyle=orthogonalEdgeStyle;rounded=0;orthogonalLoop=1;jettySize=auto;html=1;startArrow=none;startFill=0;endArrow=classic;endFill=1;" edge="1" parent="1" source="_MiZ3It3XQy1CFVNMn3t-61" target="_MiZ3It3XQy1CFVNMn3t-49">
          <mxGeometry relative="1" as="geometry">
            <mxPoint x="302.5" y="940.0000000000002" as="targetPoint" />
          </mxGeometry>
        </mxCell>
        <mxCell id="_MiZ3It3XQy1CFVNMn3t-61" value="finish" style="rhombus;whiteSpace=wrap;html=1;rounded=1;" vertex="1" parent="1">
          <mxGeometry x="262.5" y="910" width="80" height="80" as="geometry" />
        </mxCell>
        <mxCell id="_MiZ3It3XQy1CFVNMn3t-62" value="N" style="text;html=1;align=center;verticalAlign=middle;resizable=0;points=[];autosize=1;strokeColor=none;fillColor=none;" vertex="1" parent="1">
          <mxGeometry x="242.5" y="915" width="30" height="30" as="geometry" />
        </mxCell>
        <mxCell id="_MiZ3It3XQy1CFVNMn3t-63" value="Y" style="text;html=1;align=center;verticalAlign=middle;resizable=0;points=[];autosize=1;strokeColor=none;fillColor=none;" vertex="1" parent="1">
          <mxGeometry x="327.5" y="915" width="30" height="30" as="geometry" />
        </mxCell>
        <mxCell id="_MiZ3It3XQy1CFVNMn3t-64" value="Y" style="text;html=1;align=center;verticalAlign=middle;resizable=0;points=[];autosize=1;strokeColor=none;fillColor=none;" vertex="1" parent="1">
          <mxGeometry x="297.5" y="650" width="30" height="30" as="geometry" />
        </mxCell>
        <mxCell id="_MiZ3It3XQy1CFVNMn3t-65" value="class info" style="rounded=1;whiteSpace=wrap;html=1;" vertex="1" parent="1">
          <mxGeometry x="460" y="310" width="100" height="50" as="geometry" />
        </mxCell>
        <mxCell id="_MiZ3It3XQy1CFVNMn3t-66" value="N" style="text;html=1;align=center;verticalAlign=middle;resizable=0;points=[];autosize=1;strokeColor=none;fillColor=none;" vertex="1" parent="1">
          <mxGeometry x="245" y="575" width="30" height="30" as="geometry" />
        </mxCell>
      </root>
    </mxGraphModel>
  </diagram>
  <diagram id="jU_xGGWlZ-3ftBUgdQ7W" name="Page-3">
    <mxGraphModel dx="540" dy="927" grid="1" gridSize="10" guides="1" tooltips="1" connect="1" arrows="1" fold="1" page="1" pageScale="1" pageWidth="850" pageHeight="1100" math="0" shadow="0">
      <root>
        <mxCell id="0" />
        <mxCell id="1" parent="0" />
        <mxCell id="5J9FDwa5Bp_wDZwZgKIJ-1" value="" style="edgeStyle=orthogonalEdgeStyle;rounded=0;orthogonalLoop=1;jettySize=auto;html=1;startArrow=none;startFill=0;endArrow=classic;endFill=1;" edge="1" parent="1" source="5J9FDwa5Bp_wDZwZgKIJ-2" target="5J9FDwa5Bp_wDZwZgKIJ-20">
          <mxGeometry relative="1" as="geometry" />
        </mxCell>
        <mxCell id="5J9FDwa5Bp_wDZwZgKIJ-36" value="" style="edgeStyle=orthogonalEdgeStyle;rounded=0;orthogonalLoop=1;jettySize=auto;html=1;startArrow=none;startFill=0;endArrow=none;endFill=0;dashed=1;" edge="1" parent="1" source="5J9FDwa5Bp_wDZwZgKIJ-2" target="5J9FDwa5Bp_wDZwZgKIJ-35">
          <mxGeometry relative="1" as="geometry" />
        </mxCell>
        <mxCell id="5J9FDwa5Bp_wDZwZgKIJ-2" value="create message object" style="rounded=1;whiteSpace=wrap;html=1;" vertex="1" parent="1">
          <mxGeometry x="220" y="230" width="145" height="50" as="geometry" />
        </mxCell>
        <mxCell id="5J9FDwa5Bp_wDZwZgKIJ-3" value="&lt;b&gt;ISO8583 binding - packing&lt;/b&gt;" style="text;html=1;align=center;verticalAlign=middle;resizable=0;points=[];autosize=1;strokeColor=none;fillColor=none;" vertex="1" parent="1">
          <mxGeometry x="10" y="20" width="170" height="30" as="geometry" />
        </mxCell>
        <mxCell id="5J9FDwa5Bp_wDZwZgKIJ-4" value="" style="edgeStyle=orthogonalEdgeStyle;rounded=0;orthogonalLoop=1;jettySize=auto;html=1;startArrow=none;startFill=0;endArrow=classic;endFill=1;" edge="1" parent="1" source="5J9FDwa5Bp_wDZwZgKIJ-5" target="5J9FDwa5Bp_wDZwZgKIJ-10">
          <mxGeometry relative="1" as="geometry" />
        </mxCell>
        <mxCell id="5J9FDwa5Bp_wDZwZgKIJ-5" value="fetch data" style="rounded=1;whiteSpace=wrap;html=1;" vertex="1" parent="1">
          <mxGeometry x="247.5" y="470" width="90" height="50" as="geometry" />
        </mxCell>
        <mxCell id="5J9FDwa5Bp_wDZwZgKIJ-6" style="edgeStyle=orthogonalEdgeStyle;rounded=0;orthogonalLoop=1;jettySize=auto;html=1;entryX=1;entryY=0.5;entryDx=0;entryDy=0;startArrow=none;startFill=0;endArrow=none;endFill=0;dashed=1;" edge="1" parent="1" source="5J9FDwa5Bp_wDZwZgKIJ-7" target="5J9FDwa5Bp_wDZwZgKIJ-12">
          <mxGeometry relative="1" as="geometry" />
        </mxCell>
        <mxCell id="5J9FDwa5Bp_wDZwZgKIJ-7" value="packager config" style="whiteSpace=wrap;html=1;rounded=1;" vertex="1" parent="1">
          <mxGeometry x="382.5" y="715" width="100" height="50" as="geometry" />
        </mxCell>
        <mxCell id="5J9FDwa5Bp_wDZwZgKIJ-8" value="" style="edgeStyle=orthogonalEdgeStyle;rounded=0;orthogonalLoop=1;jettySize=auto;html=1;startArrow=none;startFill=0;endArrow=classic;endFill=1;" edge="1" parent="1" source="5J9FDwa5Bp_wDZwZgKIJ-10" target="5J9FDwa5Bp_wDZwZgKIJ-12">
          <mxGeometry relative="1" as="geometry" />
        </mxCell>
        <mxCell id="5J9FDwa5Bp_wDZwZgKIJ-42" style="edgeStyle=orthogonalEdgeStyle;rounded=0;orthogonalLoop=1;jettySize=auto;html=1;entryX=0;entryY=0.5;entryDx=0;entryDy=0;startArrow=none;startFill=0;endArrow=classic;endFill=1;" edge="1" parent="1" source="5J9FDwa5Bp_wDZwZgKIJ-10" target="5J9FDwa5Bp_wDZwZgKIJ-20">
          <mxGeometry relative="1" as="geometry">
            <Array as="points">
              <mxPoint x="150" y="600" />
              <mxPoint x="150" y="365" />
            </Array>
          </mxGeometry>
        </mxCell>
        <mxCell id="5J9FDwa5Bp_wDZwZgKIJ-10" value="isValid" style="rhombus;whiteSpace=wrap;html=1;rounded=1;" vertex="1" parent="1">
          <mxGeometry x="252.5" y="560" width="80" height="80" as="geometry" />
        </mxCell>
        <mxCell id="5J9FDwa5Bp_wDZwZgKIJ-11" style="edgeStyle=orthogonalEdgeStyle;rounded=0;orthogonalLoop=1;jettySize=auto;html=1;entryX=0.5;entryY=0;entryDx=0;entryDy=0;startArrow=none;startFill=0;endArrow=classic;endFill=1;" edge="1" parent="1" source="5J9FDwa5Bp_wDZwZgKIJ-12" target="5J9FDwa5Bp_wDZwZgKIJ-29">
          <mxGeometry relative="1" as="geometry" />
        </mxCell>
        <mxCell id="5J9FDwa5Bp_wDZwZgKIJ-12" value="bind field into set " style="whiteSpace=wrap;html=1;rounded=1;" vertex="1" parent="1">
          <mxGeometry x="243.75" y="715" width="97.5" height="50" as="geometry" />
        </mxCell>
        <mxCell id="5J9FDwa5Bp_wDZwZgKIJ-14" value="" style="edgeStyle=orthogonalEdgeStyle;rounded=0;orthogonalLoop=1;jettySize=auto;html=1;startArrow=none;startFill=0;endArrow=oval;endFill=1;" edge="1" parent="1" source="5J9FDwa5Bp_wDZwZgKIJ-15" target="5J9FDwa5Bp_wDZwZgKIJ-24">
          <mxGeometry relative="1" as="geometry" />
        </mxCell>
        <mxCell id="qCcz__FhQrCyCPcCeI9U-1" style="edgeStyle=orthogonalEdgeStyle;rounded=0;orthogonalLoop=1;jettySize=auto;html=1;startArrow=none;startFill=0;endArrow=classic;endFill=1;" edge="1" parent="1" source="5J9FDwa5Bp_wDZwZgKIJ-15">
          <mxGeometry relative="1" as="geometry">
            <mxPoint x="120.00000000000023" y="100" as="targetPoint" />
          </mxGeometry>
        </mxCell>
        <mxCell id="5J9FDwa5Bp_wDZwZgKIJ-15" value="pack message" style="whiteSpace=wrap;html=1;rounded=1;" vertex="1" parent="1">
          <mxGeometry x="487.5" y="1010" width="90" height="35" as="geometry" />
        </mxCell>
        <mxCell id="DMdUqwYjrQsDs1StASu3-3" style="rounded=0;orthogonalLoop=1;jettySize=auto;html=1;entryX=0.462;entryY=0.02;entryDx=0;entryDy=0;entryPerimeter=0;startArrow=none;startFill=0;endArrow=classic;endFill=1;edgeStyle=orthogonalEdgeStyle;" edge="1" parent="1" source="5J9FDwa5Bp_wDZwZgKIJ-17" target="5J9FDwa5Bp_wDZwZgKIJ-2">
          <mxGeometry relative="1" as="geometry">
            <Array as="points">
              <mxPoint x="287" y="180" />
              <mxPoint x="287" y="180" />
            </Array>
          </mxGeometry>
        </mxCell>
        <mxCell id="5J9FDwa5Bp_wDZwZgKIJ-17" value="&lt;div&gt;check message type&lt;/div&gt;&lt;div&gt;&amp;nbsp;and version&lt;/div&gt;" style="rounded=1;whiteSpace=wrap;html=1;" vertex="1" parent="1">
          <mxGeometry x="225" y="55" width="135" height="80" as="geometry" />
        </mxCell>
        <mxCell id="5J9FDwa5Bp_wDZwZgKIJ-18" value="" style="edgeStyle=orthogonalEdgeStyle;rounded=0;orthogonalLoop=1;jettySize=auto;html=1;endArrow=classic;endFill=1;startArrow=oval;startFill=1;" edge="1" parent="1" target="5J9FDwa5Bp_wDZwZgKIJ-17">
          <mxGeometry relative="1" as="geometry">
            <mxPoint x="100" y="95" as="sourcePoint" />
          </mxGeometry>
        </mxCell>
        <mxCell id="5J9FDwa5Bp_wDZwZgKIJ-19" style="edgeStyle=orthogonalEdgeStyle;rounded=0;orthogonalLoop=1;jettySize=auto;html=1;startArrow=none;startFill=0;endArrow=classic;endFill=1;" edge="1" parent="1" source="5J9FDwa5Bp_wDZwZgKIJ-20" target="5J9FDwa5Bp_wDZwZgKIJ-5">
          <mxGeometry relative="1" as="geometry" />
        </mxCell>
        <mxCell id="5J9FDwa5Bp_wDZwZgKIJ-37" value="" style="edgeStyle=orthogonalEdgeStyle;rounded=0;orthogonalLoop=1;jettySize=auto;html=1;dashed=1;startArrow=none;startFill=0;endArrow=none;endFill=0;" edge="1" parent="1" source="5J9FDwa5Bp_wDZwZgKIJ-20" target="5J9FDwa5Bp_wDZwZgKIJ-26">
          <mxGeometry relative="1" as="geometry" />
        </mxCell>
        <mxCell id="5J9FDwa5Bp_wDZwZgKIJ-20" value="&lt;div&gt;handle message&lt;/div&gt;" style="rounded=1;whiteSpace=wrap;html=1;" vertex="1" parent="1">
          <mxGeometry x="225" y="340" width="135" height="50" as="geometry" />
        </mxCell>
        <mxCell id="5J9FDwa5Bp_wDZwZgKIJ-23" value="Start" style="text;html=1;align=center;verticalAlign=middle;resizable=0;points=[];autosize=1;strokeColor=none;fillColor=none;" vertex="1" parent="1">
          <mxGeometry x="50" y="80" width="50" height="30" as="geometry" />
        </mxCell>
        <mxCell id="5J9FDwa5Bp_wDZwZgKIJ-24" value="Finish" style="text;html=1;align=center;verticalAlign=middle;resizable=0;points=[];autosize=1;strokeColor=none;fillColor=none;" vertex="1" parent="1">
          <mxGeometry x="502.5" y="1080" width="60" height="30" as="geometry" />
        </mxCell>
        <mxCell id="5J9FDwa5Bp_wDZwZgKIJ-26" value="handler methods" style="rounded=1;whiteSpace=wrap;html=1;" vertex="1" parent="1">
          <mxGeometry x="450" y="340" width="100" height="50" as="geometry" />
        </mxCell>
        <mxCell id="5J9FDwa5Bp_wDZwZgKIJ-27" style="edgeStyle=orthogonalEdgeStyle;rounded=0;orthogonalLoop=1;jettySize=auto;html=1;startArrow=none;startFill=0;endArrow=classic;endFill=1;" edge="1" parent="1" source="5J9FDwa5Bp_wDZwZgKIJ-29">
          <mxGeometry relative="1" as="geometry">
            <mxPoint x="292.4999999999998" y="660" as="targetPoint" />
            <Array as="points">
              <mxPoint x="160" y="940" />
              <mxPoint x="160" y="660" />
            </Array>
          </mxGeometry>
        </mxCell>
        <mxCell id="5J9FDwa5Bp_wDZwZgKIJ-28" value="" style="edgeStyle=orthogonalEdgeStyle;rounded=0;orthogonalLoop=1;jettySize=auto;html=1;startArrow=none;startFill=0;endArrow=classic;endFill=1;" edge="1" parent="1" source="5J9FDwa5Bp_wDZwZgKIJ-29" target="5J9FDwa5Bp_wDZwZgKIJ-15">
          <mxGeometry relative="1" as="geometry">
            <mxPoint x="292.5" y="930.0000000000002" as="targetPoint" />
          </mxGeometry>
        </mxCell>
        <mxCell id="5J9FDwa5Bp_wDZwZgKIJ-29" value="finish" style="rhombus;whiteSpace=wrap;html=1;rounded=1;" vertex="1" parent="1">
          <mxGeometry x="252.5" y="900" width="80" height="80" as="geometry" />
        </mxCell>
        <mxCell id="5J9FDwa5Bp_wDZwZgKIJ-30" value="N" style="text;html=1;align=center;verticalAlign=middle;resizable=0;points=[];autosize=1;strokeColor=none;fillColor=none;" vertex="1" parent="1">
          <mxGeometry x="232.5" y="905" width="30" height="30" as="geometry" />
        </mxCell>
        <mxCell id="5J9FDwa5Bp_wDZwZgKIJ-31" value="Y" style="text;html=1;align=center;verticalAlign=middle;resizable=0;points=[];autosize=1;strokeColor=none;fillColor=none;" vertex="1" parent="1">
          <mxGeometry x="317.5" y="905" width="30" height="30" as="geometry" />
        </mxCell>
        <mxCell id="5J9FDwa5Bp_wDZwZgKIJ-32" value="Y" style="text;html=1;align=center;verticalAlign=middle;resizable=0;points=[];autosize=1;strokeColor=none;fillColor=none;" vertex="1" parent="1">
          <mxGeometry x="287.5" y="640" width="30" height="30" as="geometry" />
        </mxCell>
        <mxCell id="5J9FDwa5Bp_wDZwZgKIJ-35" value="class info" style="rounded=1;whiteSpace=wrap;html=1;" vertex="1" parent="1">
          <mxGeometry x="450" y="230" width="100" height="50" as="geometry" />
        </mxCell>
        <mxCell id="5J9FDwa5Bp_wDZwZgKIJ-43" value="N" style="text;html=1;align=center;verticalAlign=middle;resizable=0;points=[];autosize=1;strokeColor=none;fillColor=none;" vertex="1" parent="1">
          <mxGeometry x="235" y="565" width="30" height="30" as="geometry" />
        </mxCell>
      </root>
    </mxGraphModel>
  </diagram>
</mxfile>
